<?xml version="1.0" encoding="UTF-8"?>
<svg version="1.1" xmlns="http://www.w3.org/2000/svg" width="178" height="62">
<path d="M0 0 C3.20577872 1.808388 3.82003953 2.46011859 5 6 C5.25921695 9.39862227 5.44193183 12.79132173 5.60546875 16.1953125 C5.77370125 19.33951984 5.99885537 21.99656612 7 25 C5.3125 26.625 5.3125 26.625 3 28 C1.31923769 27.36971413 -0.34795544 26.70211894 -2 26 C-3.35085807 26.63040043 -4.68252676 27.30251417 -6 28 C-9.62982383 28.32409141 -12.08851926 28.45574037 -15.375 26.8125 C-17.45670073 24.49060303 -17.85197959 23.10842861 -18 20 C-17.00601064 16.52103724 -15.81963988 14.26190892 -13 12 C-10.30078125 11.26953125 -10.30078125 11.26953125 -7.3125 10.8125 C-6.31863281 10.65394531 -5.32476562 10.49539062 -4.30078125 10.33203125 C-3.54152344 10.22246094 -2.78226563 10.11289062 -2 10 C-2.66 8.68 -3.32 7.36 -4 6 C-6.41619823 5.74969023 -6.41619823 5.74969023 -9 6 C-9.99 7.485 -9.99 7.485 -11 9 C-13.97 8.505 -13.97 8.505 -17 8 C-15.73090537 4.08695821 -14.53743024 2.14389712 -11 0 C-7.15691096 -1.28102968 -3.87947605 -0.89165377 0 0 Z M-8.1875 15.1875 C-10.27852266 16.89271846 -10.27852266 16.89271846 -10.25 19.6875 C-10.1675 20.450625 -10.085 21.21375 -10 22 C-7.525 22.495 -7.525 22.495 -5 23 C-3.33153266 21.30504044 -3.33153266 21.30504044 -2 19 C-2.22197813 16.3015411 -2.22197813 16.3015411 -3 14 C-5.97541303 13.76145407 -5.97541303 13.76145407 -8.1875 15.1875 Z " fill="#000000" transform="translate(24,7)"/>
<path d="M0 0 C3.20577872 1.808388 3.82003953 2.46011859 5 6 C5.22956015 8.64986098 5.41754547 11.28316869 5.5625 13.9375 C5.60568359 14.65357422 5.64886719 15.36964844 5.69335938 16.10742188 C5.88638814 19.41342245 6 22.68711104 6 26 C3.6875 27.125 3.6875 27.125 1 28 C0.01 27.34 -0.98 26.68 -2 26 C-2.515625 26.33 -3.03125 26.66 -3.5625 27 C-6.88247788 28.36204221 -9.44186248 28.31769085 -13 28 C-15.375 26.875 -15.375 26.875 -17 25 C-18.14502153 21.48860065 -18.30867902 19.73739988 -16.875 16.3125 C-13.66629792 12.35510077 -10.65874986 10.95366827 -5.6875 10.3125 C-4.470625 10.209375 -3.25375 10.10625 -2 10 C-2.33 8.35 -2.66 6.7 -3 5 C-5.93443402 5.26656572 -5.93443402 5.26656572 -9 6 C-9.99 7.485 -9.99 7.485 -11 9 C-13.97 8.505 -13.97 8.505 -17 8 C-15.73090537 4.08695821 -14.53743024 2.14389712 -11 0 C-7.15691096 -1.28102968 -3.87947605 -0.89165377 0 0 Z M-8.25 15.1875 C-10.25639222 16.89999561 -10.25639222 16.89999561 -10.3125 19.625 C-10.25156054 21.95137906 -10.25156054 21.95137906 -9 23 C-7.33382885 23.04063832 -5.66611905 23.042721 -4 23 C-2.14223235 19.86501708 -1.79859524 17.62528568 -2 14 C-5.83443376 13.68882759 -5.83443376 13.68882759 -8.25 15.1875 Z " fill="#000000" transform="translate(91,7)"/>
<path d="M0 0 C1.98 0 3.96 0 6 0 C6.33 0.66 6.66 1.32 7 2 C7.66 1.34 8.32 0.68 9 0 C16.23444976 -0.57416268 16.23444976 -0.57416268 19 1.5 C19.33 1.995 19.66 2.49 20 3 C20.5259375 2.2575 20.5259375 2.2575 21.0625 1.5 C24.06034694 -0.82091376 26.32644233 -0.45113866 30 0 C32.7316222 2.08117818 33.86933806 3.23541693 34.45410156 6.65722656 C34.4331543 7.64174805 34.41220703 8.62626953 34.390625 9.640625 C34.37773438 10.71054687 34.36484375 11.78046875 34.3515625 12.8828125 C34.31804687 13.99398438 34.28453125 15.10515625 34.25 16.25 C34.23195312 17.37664063 34.21390625 18.50328125 34.1953125 19.6640625 C34.14820222 22.44356896 34.08243361 25.2213534 34 28 C31.69 28 29.38 28 27 28 C26.67 21.07 26.34 14.14 26 7 C24.68 7 23.36 7 22 7 C20.85345518 9.29308963 20.80270883 10.79909656 20.68359375 13.3515625 C20.64169922 14.20234375 20.59980469 15.053125 20.55664062 15.9296875 C20.51732422 16.81914062 20.47800781 17.70859375 20.4375 18.625 C20.39431641 19.5221875 20.35113281 20.419375 20.30664062 21.34375 C20.20043139 23.56234283 20.09838806 25.7810488 20 28 C18.00045254 28.04254356 15.99958364 28.04080783 14 28 C12.41596476 26.41596476 12.78025065 24.7228362 12.68359375 22.52734375 C12.64169922 21.62822266 12.59980469 20.72910156 12.55664062 19.80273438 C12.51732422 18.85720703 12.47800781 17.91167969 12.4375 16.9375 C12.39431641 15.98810547 12.35113281 15.03871094 12.30664062 14.06054688 C12.20020724 11.70718647 12.09818992 9.35371646 12 7 C10.68 7 9.36 7 8 7 C7.97494385 7.60062256 7.9498877 8.20124512 7.92407227 8.82006836 C7.8084472 11.52611437 7.68557064 14.23178283 7.5625 16.9375 C7.50352539 18.35579102 7.50352539 18.35579102 7.44335938 19.80273438 C7.40146484 20.70185547 7.35957031 21.60097656 7.31640625 22.52734375 C7.27974854 23.35999756 7.24309082 24.19265137 7.20532227 25.05053711 C7 27 7 27 6 28 C4.02 28 2.04 28 0 28 C0 18.76 0 9.52 0 0 Z " fill="#000000" transform="translate(35,7)"/>
<path d="M0 0 C5.94 0 11.88 0 18 0 C19 5 19 5 17.12890625 8.33203125 C16.28857646 9.50319954 15.43248891 10.66319212 14.5625 11.8125 C13.9118457 12.7087207 13.9118457 12.7087207 13.24804688 13.62304688 C12.17874598 15.09186679 11.09111289 16.54730974 10 18 C12.97 18.99 15.94 19.98 19 21 C19 22.98 19 24.96 19 27 C18.14277344 26.91621094 17.28554687 26.83242188 16.40234375 26.74609375 C10.40068264 26.21156024 4.91578513 25.76181241 -1 27 C-1.49434219 21.66588827 -0.19755494 19.12610471 2.875 14.8125 C3.59429687 13.78769531 4.31359375 12.76289063 5.0546875 11.70703125 C5.69664063 10.81371094 6.33859375 9.92039062 7 9 C7.66 8.01 8.32 7.02 9 6 C7.700625 6.020625 6.40125 6.04125 5.0625 6.0625 C3.70834367 6.08399454 2.35243917 6.07148199 1 6 C0.67 5.67 0.34 5.34 0 5 C0 3.35 0 1.7 0 0 Z " fill="#000000" transform="translate(102,7)"/>
<path d="M0 0 C3.72061194 2.77066847 5.84978227 5.50369434 7 10 C7.61519943 16.25452757 6.65201043 20.79680119 3 26 C-1.02702057 28.68468038 -4.2684363 28.68187737 -9 28 C-12.60621476 25.85161674 -14.45131756 23.85479908 -16 20 C-16.62977827 14.74208377 -17.16577147 8.98504473 -14.1875 4.375 C-9.86624406 -0.31664931 -6.12164765 -1.05434353 0 0 Z M-7 5 C-9.56793844 10.29637302 -9.63675337 14.81116028 -8 20.4375 C-7.67 21.283125 -7.34 22.12875 -7 23 C-4.54775306 22.89386164 -4.54775306 22.89386164 -2 22 C0.81402475 18.03478331 -0.08470811 13.78571024 -0.61328125 9.20703125 C-0.89731253 6.96693186 -0.89731253 6.96693186 -2 5 C-3.65 5 -5.3 5 -7 5 Z " fill="#000000" transform="translate(140,7)"/>
<path d="M0 0 C1.98 0 3.96 0 6 0 C6.33 0.99 6.66 1.98 7 3 C7.350625 2.505 7.70125 2.01 8.0625 1.5 C11.02552179 -0.79395236 13.37042697 -0.38888282 17 0 C19.61593153 1.83115207 19.96989455 2.90968366 21 6 C21.08178114 7.70016844 21.10749501 9.40336297 21.09765625 11.10546875 C21.09443359 12.08837891 21.09121094 13.07128906 21.08789062 14.08398438 C21.07951172 15.10814453 21.07113281 16.13230469 21.0625 17.1875 C21.05798828 18.22326172 21.05347656 19.25902344 21.04882812 20.32617188 C21.0370401 22.88417266 21.02058515 25.44205733 21 28 C18.69 28 16.38 28 14 28 C13.67 20.74 13.34 13.48 13 6 C11.35 6.66 9.7 7.32 8 8 C7.67 14.6 7.34 21.2 7 28 C4.69 28 2.38 28 0 28 C0 18.76 0 9.52 0 0 Z " fill="#000000" transform="translate(151,7)"/>
</svg>
