<?xml version="1.0" encoding="UTF-8"?>
<svg version="1.1" xmlns="http://www.w3.org/2000/svg" width="134" height="63">
<path d="M0 0 C-1.19899698 3.0831351 -2.47700477 6.06279492 -4 9 C-4.969375 8.649375 -5.93875 8.29875 -6.9375 7.9375 C-12.7872111 6.29152866 -17.90787432 7.0314233 -23.375 9.5625 C-26.7693725 12.71441732 -28.29008614 15.41782872 -29 20 C-28.80430188 24.89245311 -27.71073255 28.12093605 -24.625 31.9375 C-20.35280808 35.29422222 -17.71669092 36.48034898 -12.09375 36.3125 C-8.28048857 35.7433565 -6.10905349 34.31654966 -3 32 C-0.45097912 27.68047694 0.71326611 23.49375284 1.8125 18.625 C3.903242 10.23952889 6.88643488 4.81823966 14.1875 0.0625 C20.53703712 -3.63200385 26.78838842 -3.65328717 34 -3 C37.04152012 -1.96660518 39.25794063 -0.72050784 42 1 C40.35 3.64 38.7 6.28 37 9 C36.030625 8.649375 35.06125 8.29875 34.0625 7.9375 C29.01869254 6.52850115 23.87424402 6.4711468 19.1640625 8.9765625 C15.44998681 11.78476607 13.78406876 14.46982491 13 19 C12.76052656 24.23967896 13.49478976 27.90506869 16.875 32 C19.97859765 35.36872911 22.23086249 35.95037823 26.875 36.25 C30.72627732 36.17946379 32.97058292 35.52451423 36 33 C38.29582863 29.93282876 38.29582863 29.93282876 40 27 C35.38 27 30.76 27 26 27 C27.65 24.03 29.3 21.06 31 18 C37.6 18 44.2 18 51 18 C51 26.78969695 50.52893346 31.34709611 45.75 38.25 C40.37866711 43.62133289 34.94301559 46.15854679 27.375 46.3125 C17.92469045 46.23519685 12.84762401 43.16286161 6 37 C5.48050781 37.48210938 4.96101563 37.96421875 4.42578125 38.4609375 C3.72839844 39.09257813 3.03101562 39.72421875 2.3125 40.375 C1.62800781 41.00148437 0.94351563 41.62796875 0.23828125 42.2734375 C-6.06414283 47.13499325 -13.36281387 46.85596319 -21 46 C-23.86450226 44.92814583 -26.31265638 43.69188345 -28.9140625 42.09375 C-31.19787495 40.69041414 -31.19787495 40.69041414 -35 41 C-36.58333333 42.41666667 -36.58333333 42.41666667 -38 44 C-41.47782583 45.15927528 -44.18803257 45.11313066 -47.85546875 45.09765625 C-49.06614014 45.09515869 -50.27681152 45.09266113 -51.52416992 45.09008789 C-53.06306885 45.08098389 -54.60196777 45.07187988 -56.1875 45.0625 C-61.075625 45.041875 -65.96375 45.02125 -71 45 C-71 29.49 -71 13.98 -71 -2 C-66.66875 -2.061875 -62.3375 -2.12375 -57.875 -2.1875 C-56.52003418 -2.21481201 -55.16506836 -2.24212402 -53.76904297 -2.27026367 C-52.14699951 -2.28150269 -52.14699951 -2.28150269 -50.4921875 -2.29296875 C-49.39245605 -2.3086792 -48.29272461 -2.32438965 -47.15966797 -2.34057617 C-42.13576804 -1.79905706 -38.95206421 -0.07733582 -35.625 3.6875 C-35.08875 4.450625 -34.5525 5.21375 -34 6 C-33.36384766 5.40251953 -33.36384766 5.40251953 -32.71484375 4.79296875 C-22.89465211 -4.07757798 -12.02651017 -5.550697 0 0 Z M-61 7 C-61 10.3 -61 13.6 -61 17 C-58.54137599 17.05383848 -56.0839245 17.09359038 -53.625 17.125 C-52.92632812 17.14175781 -52.22765625 17.15851562 -51.5078125 17.17578125 C-49.67102514 17.19344267 -47.83398037 17.10303261 -46 17 C-43.68436913 15.11499729 -43.68436913 15.11499729 -43.75 12 C-43.68436913 8.88500271 -43.68436913 8.88500271 -46 7 C-48.58064129 6.85502015 -51.04943884 6.81322455 -53.625 6.875 C-54.33140625 6.88402344 -55.0378125 6.89304687 -55.765625 6.90234375 C-57.51056098 6.92592397 -59.25532295 6.96179539 -61 7 Z M-61 26 C-61.02688151 27.64574566 -61.04634123 29.29161413 -61.0625 30.9375 C-61.07410156 31.85402344 -61.08570313 32.77054688 -61.09765625 33.71484375 C-61.25949049 35.96593327 -61.25949049 35.96593327 -60 37 C-57.54715055 37.15385787 -55.14179786 37.23163294 -52.6875 37.25 C-51.67139648 37.2809375 -51.67139648 37.2809375 -50.63476562 37.3125 C-46.44748739 37.34524509 -44.03383542 36.96364386 -41 34 C-41.25561323 31.6568787 -41.59270772 29.32156597 -42 27 C-45.30994713 25.34502644 -48.99123 25.89915665 -52.625 25.9375 C-53.82769531 25.94426758 -53.82769531 25.94426758 -55.0546875 25.95117188 C-57.03649006 25.96296832 -59.01825433 25.98090395 -61 26 Z " fill="#000000" transform="translate(77,10)"/>
</svg>
