<?xml version="1.0" encoding="UTF-8"?>
<svg version="1.1" xmlns="http://www.w3.org/2000/svg" width="177" height="48">
<path d="M0 0 C3.02929253 -0.39241025 5.68998996 -0.53717773 8.71875 -0.49609375 C9.57303589 -0.49754898 10.42732178 -0.49900421 11.30749512 -0.50050354 C13.11307181 -0.49884408 14.91866258 -0.48727743 16.72412109 -0.46655273 C19.48986819 -0.43760604 22.253698 -0.44594031 25.01953125 -0.45898438 C26.77344683 -0.45274671 28.52735635 -0.44435555 30.28125 -0.43359375 C31.10943237 -0.43652939 31.93761475 -0.43946503 32.79089355 -0.44248962 C38.56370278 -0.34750539 38.56370278 -0.34750539 40.67956543 1.3377533 C43.65187041 5.07947914 43.32829572 9.45709704 43 14 C42.375 16.875 42.375 16.875 41 19 C35.95618711 21.26148955 31.49323387 21.19348871 26.1015625 20.9765625 C25.26660248 20.95153656 24.43164246 20.92651062 23.57138062 20.90072632 C20.92214487 20.8189952 18.27370777 20.72222678 15.625 20.625 C13.8216465 20.5667124 12.01826086 20.5094102 10.21484375 20.453125 C5.80944207 20.3134868 1.40469385 20.16036661 -3 20 C-3.02687279 18.18757948 -3.04633715 16.37504767 -3.0625 14.5625 C-3.07410156 13.55316406 -3.08570313 12.54382813 -3.09765625 11.50390625 C-3 9 -3 9 -2 8 C-0.33382885 7.95936168 1.33388095 7.957279 3 8 C3 10.64 3 13.28 3 16 C7.39675988 15.88202982 11.79328399 15.75780274 16.18969727 15.62768555 C17.68639269 15.58428187 19.18313939 15.54261087 20.67993164 15.50268555 C22.82714312 15.44511384 24.97409521 15.38138284 27.12109375 15.31640625 C28.4145874 15.27974854 29.70808105 15.24309082 31.04077148 15.20532227 C33.88555008 15.3332722 33.88555008 15.3332722 35 14 C35.30523962 9.34911285 35.30523962 9.34911285 34 5 C15.685 4.505 15.685 4.505 -3 4 C-2.01 2.68 -1.02 1.36 0 0 Z " fill="#000000" transform="translate(10,7)"/>
<path d="M0 0 C6.88659991 -0.126851 13.77289823 -0.21437266 20.66040039 -0.2746582 C23.00296284 -0.29979125 25.34544695 -0.33390308 27.68774414 -0.37719727 C31.05634899 -0.43789928 34.42391649 -0.46622251 37.79296875 -0.48828125 C39.36198189 -0.52699089 39.36198189 -0.52699089 40.96269226 -0.56648254 C45.66234978 -0.56829243 48.20395415 -0.54225552 52.16113281 2.15332031 C54.27353187 5.42344419 54.63160814 7.16874951 54.62890625 11.03515625 C54.63083984 12.17404297 54.63277344 13.31292969 54.63476562 14.48632812 C54.61091797 15.66646484 54.58707031 16.84660156 54.5625 18.0625 C54.57345703 19.24650391 54.58441406 20.43050781 54.59570312 21.65039062 C54.52174294 30.35303875 54.52174294 30.35303875 52.08959961 33.36889648 C50 35 50 35 48 35 C47.970271 33.79670044 47.970271 33.79670044 47.93994141 32.5690918 C47.84480505 28.94155823 47.7350792 25.31460955 47.625 21.6875 C47.5940625 20.42486328 47.563125 19.16222656 47.53125 17.86132812 C47.47324219 16.04858398 47.47324219 16.04858398 47.4140625 14.19921875 C47.3826416 13.08377686 47.3512207 11.96833496 47.31884766 10.8190918 C47.194751 7.79631214 47.194751 7.79631214 45 5 C42.90752575 4.52482134 42.90752575 4.52482134 40.45849609 4.56762695 C39.51767181 4.54783279 38.57684753 4.52803864 37.60751343 4.50764465 C36.58976837 4.50125473 35.57202332 4.49486481 34.5234375 4.48828125 C33.48305328 4.47033005 32.44266907 4.45237885 31.37075806 4.43388367 C28.03888029 4.37958318 24.70714734 4.34582147 21.375 4.3125 C19.11977142 4.27934439 16.86456201 4.24485639 14.609375 4.20898438 C9.07304654 4.12384566 3.53669979 4.05557978 -2 4 C-1.34 2.68 -0.68 1.36 0 0 Z " fill="#000000" transform="translate(63,7)"/>
<path d="M0 0 C2.86619959 -0.40557623 5.3437893 -0.56108327 8.2109375 -0.53125 C9.01608795 -0.5350769 9.8212384 -0.53890381 10.65078735 -0.54284668 C12.35379282 -0.54556783 14.05683994 -0.53819233 15.75976562 -0.52148438 C18.35902926 -0.5001312 20.95551151 -0.52124793 23.5546875 -0.546875 C25.21094358 -0.54423066 26.86719793 -0.53910349 28.5234375 -0.53125 C29.29754974 -0.53934692 30.07166199 -0.54744385 30.86923218 -0.55578613 C34.53364492 -0.49255523 36.8026336 -0.11860821 39.96728516 1.78320312 C44.03312969 6.21724929 43.21509152 11.65000934 43.25 17.375 C43.270625 18.21289062 43.29125 19.05078125 43.3125 19.9140625 C43.34436261 24.98021675 43.04071179 28.729783 40 33 C36.0157091 35.08306216 32.57771456 35.25724624 28.125 35.265625 C26.81015625 35.26820312 25.4953125 35.27078125 24.140625 35.2734375 C23.46064453 35.26924805 22.78066406 35.26505859 22.08007812 35.26074219 C20.00621283 35.25003209 17.93321362 35.2606603 15.859375 35.2734375 C14.54453125 35.27085938 13.2296875 35.26828125 11.875 35.265625 C10.07675781 35.26224121 10.07675781 35.26224121 8.2421875 35.25878906 C3.90637959 34.91270801 1.04544521 34.22569438 -1.8125 30.875 C-3.47407477 26.85224003 -3.48383035 24.35447312 -3 20 C-1 17.5 -1 17.5 1 16 C1.99 16.33 2.98 16.66 4 17 C4.04898438 17.85464844 4.09796875 18.70929687 4.1484375 19.58984375 C4.22320312 20.69457031 4.29796875 21.79929687 4.375 22.9375 C4.47941406 24.59072266 4.47941406 24.59072266 4.5859375 26.27734375 C4.72257813 27.17582031 4.85921875 28.07429688 5 29 C9.34850954 31.17425477 15.22357366 30.18496474 20 30.1875 C21.21429688 30.19974609 22.42859375 30.21199219 23.6796875 30.22460938 C24.83726562 30.22654297 25.99484375 30.22847656 27.1875 30.23046875 C28.25355469 30.23457764 29.31960937 30.23868652 30.41796875 30.24291992 C33.16369299 30.26148383 33.16369299 30.26148383 35 28 C35.29380822 25.80328117 35.29380822 25.80328117 35.23046875 23.28125 C35.22853516 22.34925781 35.22660156 21.41726562 35.22460938 20.45703125 C35.21236328 19.48121094 35.20011719 18.50539063 35.1875 17.5 C35.18685547 16.52417969 35.18621094 15.54835938 35.18554688 14.54296875 C35.35138468 9.61021686 35.35138468 9.61021686 34 5 C15.685 4.505 15.685 4.505 -3 4 C-2.01 2.68 -1.02 1.36 0 0 Z " fill="#000000" transform="translate(128,7)"/>
<path d="M0 0 C1.32 0 2.64 0 4 0 C3.62952882 2.74148672 3.31412056 4.58593199 1.625 6.8125 C0 8 0 8 -3 8 C-2.25 2.25 -2.25 2.25 0 0 Z " fill="#000000" transform="translate(128,14)"/>
<path d="M0 0 C2.31 0 4.62 0 7 0 C7.05784708 4.12494151 7.09354407 8.24977944 7.125 12.375 C7.15013672 14.1384375 7.15013672 14.1384375 7.17578125 15.9375 C7.18222656 17.05898438 7.18867187 18.18046875 7.1953125 19.3359375 C7.20578613 20.37282715 7.21625977 21.4097168 7.22705078 22.47802734 C7 25 7 25 5 27 C3.35 27 1.7 27 0 27 C0 18.09 0 9.18 0 0 Z " fill="#000000" transform="translate(60,15)"/>
<path d="M0 0 C2.31 0 4.62 0 7 0 C7.05784708 4.12494151 7.09354407 8.24977944 7.125 12.375 C7.15013672 14.1384375 7.15013672 14.1384375 7.17578125 15.9375 C7.18222656 17.05898438 7.18867187 18.18046875 7.1953125 19.3359375 C7.20578613 20.37282715 7.21625977 21.4097168 7.22705078 22.47802734 C7 25 7 25 5 27 C3.35 26.67 1.7 26.34 0 26 C0 17.42 0 8.84 0 0 Z " fill="#000000" transform="translate(85,15)"/>
<path d="M0 0 C1.98 0 3.96 0 6 0 C6.28875 0.639375 6.5775 1.27875 6.875 1.9375 C7.82823451 4.15206079 7.82823451 4.15206079 10 5 C12.62380313 5.15660883 15.22524852 5.2582908 17.8515625 5.31640625 C18.62559418 5.33718735 19.39962585 5.35796844 20.19711304 5.37937927 C22.67298392 5.44483448 25.14896202 5.50374087 27.625 5.5625 C29.30209448 5.60568907 30.97917807 5.64930348 32.65625 5.69335938 C36.77072308 5.80051171 40.88530414 5.90179045 45 6 C42.63317398 9.03859966 41.4738347 9.93237244 37.59594727 10.48583984 C36.25280254 10.49866839 34.90931717 10.48909052 33.56640625 10.4609375 C32.85145493 10.46002106 32.1365036 10.45910461 31.39988708 10.4581604 C29.89111678 10.4521317 28.38235804 10.4364073 26.8737793 10.41162109 C24.57360337 10.37517593 22.2750436 10.37060152 19.97460938 10.37109375 C18.50519452 10.36125899 17.0357905 10.34960042 15.56640625 10.3359375 C14.88292618 10.33371185 14.19944611 10.33148621 13.49525452 10.32919312 C8.57788091 10.23227531 4.69092774 9.74923559 1.1875 6.125 C0 4 0 4 0 0 Z " fill="#000000" transform="translate(7,32)"/>
</svg>
