<?xml version="1.0" encoding="UTF-8"?>
<svg version="1.1" xmlns="http://www.w3.org/2000/svg" width="128" height="39">
<path d="M0 0 C0.66 0.99 1.32 1.98 2 3 C-1.38711375 4.04218885 -4.47649693 4 -8 4 C-9.34404775 5.11836224 -9.34404775 5.11836224 -9.125 8 C-9.34404775 10.88163776 -9.34404775 10.88163776 -8 12 C-5.32941149 12.14115161 -2.67567762 12.04247107 0 12 C0 13.32 0 14.64 0 16 C-2.82001327 17.41000664 -4.87007255 17.24548451 -8 17 C-12.63235294 14.73529412 -12.63235294 14.73529412 -14 12 C-14.58203713 4.78273959 -14.58203713 4.78273959 -12.1875 1.5625 C-7.97095896 -1.44931503 -4.92507796 -1.07456246 0 0 Z " fill="#000000" transform="translate(21,7)"/>
<path d="M0 0 C2.29296875 0.1015625 2.29296875 0.1015625 5 1 C6.80078125 3.8359375 6.80078125 3.8359375 8.3125 7.375 C8.82425781 8.53773437 9.33601563 9.70046875 9.86328125 10.8984375 C11 14 11 14 11 17 C9.0625 16.625 9.0625 16.625 7 16 C6.67 15.34 6.34 14.68 6 14 C4.72125 13.938125 3.4425 13.87625 2.125 13.8125 C1.40570313 13.77769531 0.68640625 13.74289063 -0.0546875 13.70703125 C-0.69664063 13.80371094 -1.33859375 13.90039062 -2 14 C-2.99 15.485 -2.99 15.485 -4 17 C-4.99 17 -5.98 17 -7 17 C-6.37954537 12.76677156 -4.89476441 9.47709705 -2.9375 5.6875 C-2.38964844 4.61886719 -1.84179688 3.55023438 -1.27734375 2.44921875 C-0.64505859 1.23685547 -0.64505859 1.23685547 0 0 Z M1 5 C0.67 6.65 0.34 8.3 0 10 C1.32 10 2.64 10 4 10 C3.67 8.35 3.34 6.7 3 5 C2.34 5 1.68 5 1 5 Z " fill="#000000" transform="translate(31,7)"/>
<path d="M0 0 C5.625 1.125 5.625 1.125 8.3125 4.5625 C8.82425781 5.20316406 9.33601563 5.84382812 9.86328125 6.50390625 C10.23839844 6.99761719 10.61351562 7.49132812 11 8 C11.33 5.36 11.66 2.72 12 0 C13.32 0 14.64 0 16 0 C16 5.28 16 10.56 16 16 C12 16 12 16 10.078125 14.25 C9.47484375 13.5075 8.8715625 12.765 8.25 12 C7.32960938 10.88625 7.32960938 10.88625 6.390625 9.75 C5.70226563 8.88375 5.70226563 8.88375 5 8 C4.67 10.97 4.34 13.94 4 17 C2.68 16.67 1.36 16.34 0 16 C0 10.72 0 5.44 0 0 Z " fill="#000000" transform="translate(44,7)"/>
<path d="M0 0 C4.95 0 9.9 0 15 0 C15 0.99 15 1.98 15 3 C13.35 3 11.7 3 10 3 C10 7.62 10 12.24 10 17 C8.68 17 7.36 17 6 17 C6 12.38 6 7.76 6 3 C4.35 3 2.7 3 1 3 C0.67 2.01 0.34 1.02 0 0 Z " fill="#000000" transform="translate(71,7)"/>
<path d="M0 0 C4.29 0 8.58 0 13 0 C13 0.99 13 1.98 13 3 C10.03 3 7.06 3 4 3 C4 3.99 4 4.98 4 6 C6.64 6 9.28 6 12 6 C12 7.32 12 8.64 12 10 C9.36 10 6.72 10 4 10 C4 10.99 4 11.98 4 13 C6.97 13 9.94 13 13 13 C13 14.32 13 15.64 13 17 C11.02090602 17.02686553 9.04171029 17.04633375 7.0625 17.0625 C5.96035156 17.07410156 4.85820313 17.08570312 3.72265625 17.09765625 C1 17 1 17 0 16 C-0.07319621 13.30345146 -0.09242537 10.63308542 -0.0625 7.9375 C-0.05798828 7.17888672 -0.05347656 6.42027344 -0.04882812 5.63867188 C-0.0370068 3.75908129 -0.01907078 1.87953101 0 0 Z " fill="#000000" transform="translate(88,7)"/>
<path d="M0 0 C1.32 0 2.64 0 4 0 C4.33 1.98 4.66 3.96 5 6 C5.721875 5.01 6.44375 4.02 7.1875 3 C9.6095123 0.05206503 9.6095123 0.05206503 12.8125 -0.375 C13.534375 -0.25125 14.25625 -0.1275 15 0 C13.35 1.98 11.7 3.96 10 6 C11.25756667 9.48249231 12.7731892 12.06465849 15 15 C15 15.66 15 16.32 15 17 C10.62140745 16.49477778 8.18348776 13.82172778 5 11 C4.34 12.98 3.68 14.96 3 17 C2.01 17 1.02 17 0 17 C0 11.39 0 5.78 0 0 Z " fill="#000000" transform="translate(105,7)"/>
<path d="M0 0 C2.31 0 4.62 0 7 0 C7 0.99 7 1.98 7 3 C4.69 3 2.38 3 0 3 C0 2.01 0 1.02 0 0 Z " fill="#000000" transform="translate(63,15)"/>
</svg>
