<?xml version="1.0" encoding="UTF-8"?>
<svg version="1.1" xmlns="http://www.w3.org/2000/svg" width="112" height="112">
<path d="M0 0 C1.35444466 0.00212242 1.35444466 0.00212242 2.73625183 0.00428772 C5.60935838 0.00986802 8.48238591 0.02241691 11.35546875 0.03515625 C13.30794158 0.0401738 15.26041564 0.04473626 17.21289062 0.04882812 C21.9896136 0.059831 26.76627779 0.07708207 31.54296875 0.09765625 C31.21296875 1.74765625 30.88296875 3.39765625 30.54296875 5.09765625 C31.30609375 5.24203125 32.06921875 5.38640625 32.85546875 5.53515625 C35.54296875 6.09765625 35.54296875 6.09765625 38.54296875 7.09765625 C36.89296875 8.08765625 35.24296875 9.07765625 33.54296875 10.09765625 C38.02180571 9.65061639 38.02180571 9.65061639 41.54296875 7.09765625 C41.70984323 4.51411407 41.70984323 4.51411407 41.54296875 2.09765625 C38.90296875 2.42765625 36.26296875 2.75765625 33.54296875 3.09765625 C34.54296875 1.09765625 34.54296875 1.09765625 37.54296875 0.09765625 C39.60441982 0.02866525 41.66798276 0.01297898 43.73046875 0.03515625 C45.36048828 0.04869141 45.36048828 0.04869141 47.0234375 0.0625 C47.85488281 0.07410156 48.68632813 0.08570313 49.54296875 0.09765625 C49.56761973 5.06387974 49.58580524 10.03006791 49.59790039 14.99633789 C49.60294065 16.68709941 49.6097728 18.37785654 49.6184082 20.06860352 C49.63048732 22.49366332 49.63619998 24.91866569 49.640625 27.34375 C49.64578629 28.10417099 49.65094757 28.86459198 49.65626526 29.64805603 C49.65646113 31.46498195 49.60494152 33.28178752 49.54296875 35.09765625 C47.92728721 36.71333779 46.16760813 36.22244106 43.93481445 36.22363281 C42.95321854 36.22743958 41.97162262 36.23124634 40.96028137 36.23516846 C39.35572334 36.23670929 39.35572334 36.23670929 37.71875 36.23828125 C35.47069303 36.2566139 33.22264588 36.27618463 30.97460938 36.296875 C27.41723173 36.32582669 23.86048155 36.34765556 20.30297852 36.34814453 C16.87849762 36.35148107 13.4554773 36.38605423 10.03125 36.42578125 C8.9716658 36.41871155 7.9120816 36.41164185 6.82038879 36.40435791 C0.38277246 36.48580877 0.38277246 36.48580877 -5.11254883 39.51464844 C-8.81418311 43.59288343 -8.74883952 46.27243423 -8.6640625 51.62109375 C-8.38600532 54.94728719 -7.75313061 56.65342145 -5.45703125 59.09765625 C0.57987693 62.39679706 5.93290298 62.56655548 12.7265625 62.609375 C14.30982079 62.6363018 14.30982079 62.6363018 15.92506409 62.66377258 C19.27682573 62.71769984 22.62844637 62.75171542 25.98046875 62.78515625 C28.26108725 62.81834478 30.54168719 62.85283585 32.82226562 62.88867188 C38.39585167 62.9758542 43.96880653 63.03607503 49.54296875 63.09765625 C49.54296875 74.64765625 49.54296875 86.19765625 49.54296875 98.09765625 C47.11153073 99.31337526 45.5142824 99.24394264 42.79638672 99.2746582 C41.31245926 99.29391106 41.31245926 99.29391106 39.79855347 99.31355286 C38.72163239 99.32093979 37.6447113 99.32832672 36.53515625 99.3359375 C34.86502975 99.34804512 34.86502975 99.34804512 33.16116333 99.36039734 C30.79219119 99.37425853 28.4231989 99.38497153 26.05419922 99.39282227 C22.48103871 99.40985559 18.90884763 99.45370137 15.3359375 99.49804688 C-1.15687348 99.61098215 -16.66714069 99.29909945 -30.45703125 89.09765625 C-31.40449219 88.42089844 -31.40449219 88.42089844 -32.37109375 87.73046875 C-41.38052299 80.70549529 -47.02550072 70.14133159 -49.45703125 59.09765625 C-50.8165047 42.97148848 -48.93717861 29.89949257 -38.45703125 17.09765625 C-37.63138672 16.04964844 -37.63138672 16.04964844 -36.7890625 14.98046875 C-27.35201169 4.27264509 -13.80505332 -0.08180288 0 0 Z M17.54296875 9.09765625 C18.6988216 13.00977358 19.89831837 15.97216035 22.54296875 19.09765625 C23.86296875 18.43765625 25.18296875 17.77765625 26.54296875 17.09765625 C25.55296875 14.45765625 24.56296875 11.81765625 23.54296875 9.09765625 C27.41796875 12.84765625 27.41796875 12.84765625 28.54296875 15.09765625 C29.86296875 14.76765625 31.18296875 14.43765625 32.54296875 14.09765625 C31.13535995 8.88308557 31.13535995 8.88308557 27.54296875 5.09765625 C22.82390687 5.09765625 21.27259844 6.38519829 17.54296875 9.09765625 Z M11.54296875 7.09765625 C10.88296875 8.41765625 10.22296875 9.73765625 9.54296875 11.09765625 C10.53296875 11.09765625 11.52296875 11.09765625 12.54296875 11.09765625 C13.20296875 10.43765625 13.86296875 9.77765625 14.54296875 9.09765625 C14.21296875 8.43765625 13.88296875 7.77765625 13.54296875 7.09765625 C12.88296875 7.09765625 12.22296875 7.09765625 11.54296875 7.09765625 Z M13.54296875 11.09765625 C12.55296875 12.58265625 12.55296875 12.58265625 11.54296875 14.09765625 C13.19296875 16.73765625 14.84296875 19.37765625 16.54296875 22.09765625 C17.86296875 21.76765625 19.18296875 21.43765625 20.54296875 21.09765625 C19.39866698 17.22463487 18.30976777 14.09502186 15.54296875 11.09765625 C14.88296875 11.09765625 14.22296875 11.09765625 13.54296875 11.09765625 Z M7.54296875 15.09765625 C6.55296875 15.75765625 5.56296875 16.41765625 4.54296875 17.09765625 C4.54296875 17.75765625 4.54296875 18.41765625 4.54296875 19.09765625 C3.82109375 19.20078125 3.09921875 19.30390625 2.35546875 19.41015625 C-0.70195118 20.15752557 -2.8403276 21.37810814 -5.45703125 23.09765625 C-4.84248429 27.09221152 -2.75056388 29.84231961 -0.45703125 33.09765625 C0.86296875 32.76765625 2.18296875 32.43765625 3.54296875 32.09765625 C2.1453697 28.55246741 2.1453697 28.55246741 0.54296875 25.09765625 C1.20296875 25.09765625 1.86296875 25.09765625 2.54296875 25.09765625 C3.92529318 26.72392029 5.2623439 28.39015645 6.54296875 30.09765625 C7.53296875 29.10765625 8.52296875 28.11765625 9.54296875 27.09765625 C8.55296875 24.78765625 7.56296875 22.47765625 6.54296875 20.09765625 C8.54296875 22.09765625 10.54296875 24.09765625 12.54296875 26.09765625 C13.53296875 25.10765625 14.52296875 24.11765625 15.54296875 23.09765625 C12.51559902 17.99152434 12.51559902 17.99152434 7.54296875 15.09765625 Z M-10.45703125 26.09765625 C-10.91078125 26.55140625 -11.36453125 27.00515625 -11.83203125 27.47265625 C-13.45703125 29.09765625 -13.45703125 29.09765625 -15.83203125 30.03515625 C-18.86848303 31.26419625 -20.9818027 32.97603178 -23.45703125 35.09765625 C-21.80703125 38.06765625 -20.15703125 41.03765625 -18.45703125 44.09765625 C-17.13703125 43.76765625 -15.81703125 43.43765625 -14.45703125 43.09765625 C-15.01432038 39.7539215 -15.80877014 37.06452626 -17.45703125 34.09765625 C-13.58203125 37.84765625 -13.58203125 37.84765625 -12.45703125 40.09765625 C-11.13703125 39.76765625 -9.81703125 39.43765625 -8.45703125 39.09765625 C-8.67359375 38.23140625 -8.67359375 38.23140625 -8.89453125 37.34765625 C-9.41536458 35.26432292 -9.93619792 33.18098958 -10.45703125 31.09765625 C-8.74862844 32.73178068 -7.52250078 33.96671719 -6.45703125 36.09765625 C-4.80703125 35.76765625 -3.15703125 35.43765625 -1.45703125 35.09765625 C-2.38515625 33.42703125 -2.38515625 33.42703125 -3.33203125 31.72265625 C-3.68007813 31.09617187 -4.028125 30.4696875 -4.38671875 29.82421875 C-5.46600399 27.93639485 -5.46600399 27.93639485 -7.45703125 26.09765625 C-8.44703125 26.09765625 -9.43703125 26.09765625 -10.45703125 26.09765625 Z M-28.45703125 37.09765625 C-27.46703125 40.06765625 -26.47703125 43.03765625 -25.45703125 46.09765625 C-29.33203125 42.34765625 -29.33203125 42.34765625 -30.45703125 40.09765625 C-31.77703125 40.42765625 -33.09703125 40.75765625 -34.45703125 41.09765625 C-33.20785705 44.55690788 -31.7817533 47.24458828 -29.45703125 50.09765625 C-25.49882266 49.53219788 -22.79112595 48.28863277 -19.45703125 46.09765625 C-20.60133302 42.22463487 -21.69023223 39.09502186 -24.45703125 36.09765625 C-26.53156685 35.94858505 -26.53156685 35.94858505 -28.45703125 37.09765625 Z M-39.45703125 38.09765625 C-43.67808124 40.8195631 -43.67808124 40.8195631 -47.45703125 44.09765625 C-47.90840001 48.08474698 -47.79277765 50.44015289 -45.95703125 54.03515625 C-43.06307268 56.42267207 -41.15264412 56.69533777 -37.4296875 56.47265625 C-34.67069477 55.94817446 -32.6856325 54.76910718 -30.45703125 53.09765625 C-31.11703125 51.77765625 -31.77703125 50.45765625 -32.45703125 49.09765625 C-36.91203125 49.59265625 -36.91203125 49.59265625 -41.45703125 50.09765625 C-41.70703125 47.78515625 -41.70703125 47.78515625 -41.45703125 45.09765625 C-39.45703125 43.28515625 -39.45703125 43.28515625 -37.45703125 42.09765625 C-38.11703125 40.77765625 -38.77703125 39.45765625 -39.45703125 38.09765625 Z " fill="#000000" transform="translate(56.45703125,6.90234375)"/>
</svg>
