<?xml version="1.0" encoding="UTF-8"?>
<svg version="1.1" xmlns="http://www.w3.org/2000/svg" width="192" height="80">
<path d="M0 0 C4.01309539 3.85315318 7.22040424 7.3832687 7.5234375 13.19140625 C6.83163723 19.45108291 5.35313185 23.41941377 0.41015625 27.65625 C-29.16901563 49.9013415 -75.79271049 50.29791585 -111.03125 45.7578125 C-129.78275346 43.01854682 -153.59802638 38.90621628 -166.59375 23.6953125 C-170.11813639 18.84928122 -170.46984633 14.85245704 -169.59375 8.9453125 C-165.45447091 -0.23308897 -155.99521079 -5.27081642 -147.07299805 -8.83105469 C-136.80394256 -12.70256848 -126.41913805 -15.31217488 -115.59375 -17.0546875 C-114.50586182 -17.23040283 -114.50586182 -17.23040283 -113.39599609 -17.40966797 C-79.57326636 -22.54218141 -28.50481207 -22.5806192 0 0 Z M-162.703125 4.69921875 C-165.69613501 8.25496411 -166.65483599 10.80504062 -166.40625 15.4453125 C-165.60907547 18.87929508 -164.71483005 21.14548683 -162.59375 23.9453125 C-161.93375 23.9453125 -161.27375 23.9453125 -160.59375 23.9453125 C-160.59375 24.6053125 -160.59375 25.2653125 -160.59375 25.9453125 C-140.14154612 38.64521722 -116.65901946 43.94658426 -92.66015625 44.18359375 C-91.41947639 44.19835251 -91.41947639 44.19835251 -90.1537323 44.21340942 C-44.42314071 45.02234576 -44.42314071 45.02234576 -3.59375 26.9453125 C0.35680733 23.04393223 3.16544877 19.94052271 3.84375 14.3203125 C3.73577411 8.90188606 1.22175147 5.61582491 -2.59375 1.9453125 C-38.82860052 -25.35931776 -128.46107579 -27.10506868 -162.703125 4.69921875 Z " fill="#000000" transform="translate(177.59375,26.0546875)"/>
<path d="M0 0 C2.97575813 3.02921487 4.98682344 5.76404124 5.45703125 10.0546875 C4.92597268 15.35486031 1.46133884 18.70896497 -2.41796875 22.0546875 C-30.92954319 42.790378 -79.13246236 40.60718752 -112.01660156 35.6640625 C-127.45320488 33.15612243 -146.47312247 29.57924287 -157.12109375 17.05078125 C-159.10006416 14.00483584 -159.35667579 11.67097203 -159.41796875 8.0546875 C-156.61467926 0.57924887 -150.7503808 -3.50375835 -143.61572266 -6.77050781 C-105.06476221 -22.91720029 -34.61022206 -27.84473439 0 0 Z M-116.41796875 -5.9453125 C-118.39248199 -3.36986045 -118.42235326 -2.1601535 -118.35546875 1.1171875 C-117.6366813 4.16695142 -117.6366813 4.16695142 -115.29296875 6.1171875 C-112.29789508 7.40018913 -112.29789508 7.40018913 -108.79296875 5.9296875 C-104.07122187 3.39082957 -104.07122187 3.39082957 -101.73046875 -1.1328125 C-101.62734375 -1.7309375 -101.52421875 -2.3290625 -101.41796875 -2.9453125 C-101.93359375 -2.6565625 -102.44921875 -2.3678125 -102.98046875 -2.0703125 C-106.041536 -0.65751223 -109.16741793 0.1795392 -112.41796875 1.0546875 C-111.59194012 -2.66244133 -111.11679036 -4.47943143 -107.88671875 -6.6328125 C-103.58915014 -8.25891954 -100.08284776 -8.28285935 -95.54296875 -8.1328125 C-94.75921875 -8.11927734 -93.97546875 -8.10574219 -93.16796875 -8.09179688 C-91.25100093 -8.05673039 -89.33439124 -8.00293322 -87.41796875 -7.9453125 C-87.41796875 -7.2853125 -87.41796875 -6.6253125 -87.41796875 -5.9453125 C-88.09859375 -5.7803125 -88.77921875 -5.6153125 -89.48046875 -5.4453125 C-92.55655459 -3.87454526 -93.57364076 -2.66843897 -95.66796875 -0.0078125 C-99.30408046 4.4149194 -102.91128451 5.85595352 -108.41796875 7.0546875 C-108.41796875 7.7146875 -108.41796875 8.3746875 -108.41796875 9.0546875 C-106.43796875 8.7246875 -104.45796875 8.3946875 -102.41796875 8.0546875 C-109.83295961 18.32159792 -109.83295961 18.32159792 -115.41796875 21.0546875 C-118.79296875 21.3046875 -118.79296875 21.3046875 -121.41796875 21.0546875 C-122.07796875 19.4046875 -122.73796875 17.7546875 -123.41796875 16.0546875 C-122.59296875 15.2709375 -121.76796875 14.4871875 -120.91796875 13.6796875 C-118.18808369 11.41747486 -118.18808369 11.41747486 -118.41796875 9.0546875 C-122.2131583 9.31345042 -123.95938839 9.6085012 -126.73046875 12.3046875 C-128.47207264 15.1428568 -129.3370081 16.73530104 -129.41796875 20.0546875 C-127.87438437 23.99082766 -126.96957011 25.68695326 -123.41796875 28.0546875 C-118.97003569 28.7833013 -115.3610058 28.50734528 -111.29296875 26.5546875 C-106.01802882 21.96778321 -102.00211078 17.12251952 -98.54296875 11.0546875 C-96.11581267 7.23683659 -96.11581267 7.23683659 -93.11328125 6.453125 C-89.8774123 6.42211028 -87.32921504 6.59906436 -84.41796875 8.0546875 C-82.70119322 5.28863111 -82.70119322 5.28863111 -81.41796875 2.0546875 C-82.09221042 -0.29991928 -82.09221042 -0.29991928 -83.41796875 -1.9453125 C-85.43419205 -1.22967984 -85.43419205 -1.22967984 -87.41796875 0.0546875 C-88.22325764 2.10469621 -88.22325764 2.10469621 -88.41796875 4.0546875 C-90.06796875 4.0546875 -91.71796875 4.0546875 -93.41796875 4.0546875 C-92.2725665 2.74181129 -91.12663442 1.42939729 -89.98046875 0.1171875 C-89.02333984 -0.97916016 -89.02333984 -0.97916016 -88.046875 -2.09765625 C-87.19255416 -3.06670603 -86.331457 -4.03182425 -85.41796875 -4.9453125 C-80.64671312 -4.56664142 -76.13823175 -3.90368459 -71.48046875 -2.8203125 C-65.13695711 -1.50615822 -59.25860816 -1.69543116 -53.29296875 -4.3203125 C-52.67421875 -4.8565625 -52.05546875 -5.3928125 -51.41796875 -5.9453125 C-51.41796875 -6.9353125 -51.41796875 -7.9253125 -51.41796875 -8.9453125 C-51.97444092 -8.92960205 -52.53091309 -8.9138916 -53.10424805 -8.89770508 C-64.72066459 -8.61623174 -75.88707056 -8.94477487 -87.36206055 -10.87817383 C-97.91604443 -12.6450449 -107.70065087 -13.00218888 -116.41796875 -5.9453125 Z M-32.4375 2.171875 C-33.02917969 3.08195312 -33.62085938 3.99203125 -34.23046875 4.9296875 C-35.13732422 6.28707031 -35.13732422 6.28707031 -36.0625 7.671875 C-37.58278542 9.88752842 -37.58278542 9.88752842 -37.41796875 12.0546875 C-38.11921875 11.5390625 -38.82046875 11.0234375 -39.54296875 10.4921875 C-43.15506891 8.68613742 -44.55806344 9.02249889 -48.41796875 10.0546875 C-51.10563507 11.82915298 -51.10563507 11.82915298 -53.54296875 14.0546875 C-58.63568385 18.4969312 -58.63568385 18.4969312 -62.41796875 19.0546875 C-62.08796875 17.7346875 -61.75796875 16.4146875 -61.41796875 15.0546875 C-60.79921875 15.2609375 -60.18046875 15.4671875 -59.54296875 15.6796875 C-58.49109375 15.8653125 -58.49109375 15.8653125 -57.41796875 16.0546875 C-56.75796875 15.3946875 -56.09796875 14.7346875 -55.41796875 14.0546875 C-55.73838272 11.45188182 -55.73838272 11.45188182 -56.41796875 9.0546875 C-60.75981077 9.23933116 -60.75981077 9.23933116 -64.41796875 11.0546875 C-65.40796875 10.0646875 -66.39796875 9.0746875 -67.41796875 8.0546875 C-71.19342263 9.14537418 -73.88840347 9.9629966 -76.41796875 13.0546875 C-77.07796875 12.0646875 -77.73796875 11.0746875 -78.41796875 10.0546875 C-79.73796875 10.3846875 -81.05796875 10.7146875 -82.41796875 11.0546875 C-82.37671875 12.1271875 -82.33546875 13.1996875 -82.29296875 14.3046875 C-82.47475108 19.75815753 -82.47475108 19.75815753 -84.41796875 22.0546875 C-87.54296875 22.8046875 -87.54296875 22.8046875 -90.41796875 23.0546875 C-90.85546875 20.4296875 -90.85546875 20.4296875 -90.41796875 17.0546875 C-88.32301995 14.72346628 -85.95723048 12.88140129 -83.41796875 11.0546875 C-83.74796875 10.3946875 -84.07796875 9.7346875 -84.41796875 9.0546875 C-89.19726905 9.47639047 -92.22523864 11.62732106 -95.41796875 15.0546875 C-97.96376337 18.55600825 -100.04652833 21.94036625 -101.41796875 26.0546875 C-100.65484375 25.8278125 -99.89171875 25.6009375 -99.10546875 25.3671875 C-98.21859375 25.2640625 -97.33171875 25.1609375 -96.41796875 25.0546875 C-94.91796875 26.4296875 -94.91796875 26.4296875 -93.41796875 28.0546875 C-90.16120409 29.28697683 -88.80052569 29.20677594 -85.5390625 27.91015625 C-82.04060838 25.83034936 -80.23243835 23.72901024 -77.79296875 20.4921875 C-73.2810954 14.53176534 -73.2810954 14.53176534 -69.41796875 13.0546875 C-71.92772719 18.16383861 -74.54991828 23.13802956 -77.41796875 28.0546875 C-75.05737469 28.38914873 -75.05737469 28.38914873 -72.41796875 28.0546875 C-70.52659172 26.33721257 -70.52659172 26.33721257 -69.10546875 24.0546875 C-68.33783203 22.9409375 -68.33783203 22.9409375 -67.5546875 21.8046875 C-67.17957031 21.2271875 -66.80445313 20.6496875 -66.41796875 20.0546875 C-65.75796875 20.7146875 -65.09796875 21.3746875 -64.41796875 22.0546875 C-60.83452899 22.22146032 -60.83452899 22.22146032 -57.41796875 22.0546875 C-57.14984375 22.8384375 -56.88171875 23.6221875 -56.60546875 24.4296875 C-55.56982443 27.33583673 -55.56982443 27.33583673 -52.41796875 29.0546875 C-49.57676641 28.69953721 -47.13749123 27.96119499 -44.41796875 27.0546875 C-43.75796875 27.7146875 -43.09796875 28.3746875 -42.41796875 29.0546875 C-36.83066703 29.18771849 -33.89307869 26.27674304 -29.95703125 22.74609375 C-28.19363115 21.18928139 -28.19363115 21.18928139 -28.41796875 19.0546875 C-30.63451502 20.08379827 -32.52666052 21.13702975 -34.48046875 22.6171875 C-36.41796875 24.0546875 -36.41796875 24.0546875 -39.41796875 25.0546875 C-35.68622315 17.8739043 -31.57367498 11.13659404 -26.95703125 4.48828125 C-25.23980098 2.25286964 -25.23980098 2.25286964 -25.41796875 0.0546875 C-28.88340276 -0.41215853 -29.96283484 -0.42245482 -32.4375 2.171875 Z " fill="#000000" transform="translate(173.41796875,29.9453125)"/>
<path d="M0 0 C1.11375 0.1546875 1.11375 0.1546875 2.25 0.3125 C2.01269713 6.36372315 2.01269713 6.36372315 -0.046875 8.92578125 C-1.625 10.3125 -1.625 10.3125 -4.75 12.3125 C-5.74 11.9825 -6.73 11.6525 -7.75 11.3125 C-7.2542299 5.98297138 -6.0234775 0.68448608 0 0 Z " fill="#000000" transform="translate(129.75,42.6875)"/>
</svg>
