<?xml version="1.0" encoding="UTF-8"?>
<svg version="1.1" xmlns="http://www.w3.org/2000/svg" width="89" height="42">
<path d="M0 0 C4.40608743 2.16298837 7.1987497 4.39680479 9 9 C9.54208681 13.56256401 9.55969228 17.5696753 7.875 21.875 C4.85897657 25.29315988 2.22938686 27.64112309 -2.40234375 28.38671875 C-6.71602929 28.57483436 -9.49385284 28.23926957 -13.4375 26.375 C-17.40147563 22.70107137 -19.13191549 19.31574481 -19.375 13.9375 C-18.84504853 8.37300954 -17.13484795 6.24556482 -13.4375 2.1875 C-9.37219171 -1.01608459 -4.93240784 -0.86617894 0 0 Z M-11 9 C-12.658596 11.80896063 -12.658596 11.80896063 -13 15 C-11.80754522 17.91488946 -10.68916645 19.47718407 -8.1875 21.375 C-5.09483095 22.25861973 -3.06754797 21.91373769 0 21 C2.52224843 18.72997641 2.94705668 17.36303993 3.4375 14 C3.22899984 10.93603757 3.22899984 10.93603757 1.3125 8.6875 C-3.32597931 5.30266375 -6.54573951 5.26805202 -11 9 Z " fill="#000000" transform="translate(26,7)"/>
<path d="M0 0 C1.98 0 3.96 0 6 0 C6 6.6 6 13.2 6 20 C8.64 20 11.28 20 14 20 C14.33 20.66 14.66 21.32 15 22 C14.34 23.32 13.68 24.64 13 26 C8.71 26 4.42 26 0 26 C0 17.42 0 8.84 0 0 Z " fill="#000000" transform="translate(39,8)"/>
<path d="M0 0 C2.6663255 2.39411032 4.21723265 4.92880393 5.91796875 8.0703125 C6.44970703 9.04871094 6.98144531 10.02710938 7.52929688 11.03515625 C8.07650391 12.05480469 8.62371094 13.07445312 9.1875 14.125 C9.74630859 15.15238281 10.30511719 16.17976563 10.88085938 17.23828125 C15 24.85290751 15 24.85290751 15 26 C11.8125 26.5 11.8125 26.5 8 26 C5.7982902 23.60435721 4.41842272 20.91121966 3 18 C2.62488281 17.25234375 2.24976562 16.5046875 1.86328125 15.734375 C1.57839844 15.16203125 1.29351562 14.5896875 1 14 C0.57589844 14.86625 0.15179688 15.7325 -0.28515625 16.625 C-1.16494141 18.295625 -1.16494141 18.295625 -2.0625 20 C-2.91521484 21.670625 -2.91521484 21.670625 -3.78515625 23.375 C-6 26 -6 26 -9.74609375 26.375 C-11.35677734 26.189375 -11.35677734 26.189375 -13 26 C-11.58811067 22.97691173 -10.16961649 19.95696642 -8.75 16.9375 C-8.35425781 16.08994141 -7.95851563 15.24238281 -7.55078125 14.36914062 C-5.23028581 9.44284292 -2.77284392 4.68712379 0 0 Z " fill="#000000" transform="translate(68,8)"/>
</svg>
