<?xml version="1.0" encoding="UTF-8"?>
<svg version="1.1" xmlns="http://www.w3.org/2000/svg" width="151" height="69">
<path d="M0 0 C3.81854877 2.66808857 6.34230662 5.81988862 7.828125 10.27734375 C8.52578705 17.45983175 8.22348704 22.45645889 3.828125 28.27734375 C-0.47978135 32.36433182 -4.088986 34.07246942 -9.984375 34.65234375 C-15.35552148 34.49019593 -19.89110078 32.4903722 -23.75 28.74609375 C-28.40926501 23.28350718 -28.51507634 19.50810774 -28.453125 12.484375 C-27.97773232 7.06357796 -25.58746975 4.5840466 -21.734375 1.02734375 C-14.54544141 -3.88217187 -7.55142817 -4.17706952 0 0 Z M-20.171875 7.27734375 C-22.24746785 10.89289259 -23.21393838 13.22575916 -23.046875 17.40234375 C-21.6914367 21.85592673 -20.3832654 24.4120649 -16.546875 27.15234375 C-12.13507744 28.62294294 -8.62454203 28.64676437 -4.171875 27.27734375 C-0.99810416 24.69865494 1.47076415 22.49840926 2.13671875 18.359375 C2.4021124 13.68683834 2.07743597 10.93787518 -0.984375 7.27734375 C-3.92357505 4.14219702 -6.14900757 3.37384068 -10.484375 2.96484375 C-14.95956192 3.34409688 -16.82167502 4.30784831 -20.171875 7.27734375 Z " fill="#000000" transform="translate(35.171875,9.72265625)"/>
<path d="M0 0 C4.75973478 2.65572628 7.73430991 5.8917817 9.93359375 10.95703125 C11.08332336 15.42820197 11.06608185 19.59307255 11 24.1875 C10.99935547 25.05826172 10.99871094 25.92902344 10.99804688 26.82617188 C10.95309434 33.23440566 10.95309434 33.23440566 9.8125 34.375 C8.14632885 34.41563832 6.47861905 34.417721 4.8125 34.375 C4.79848145 33.52119751 4.79848145 33.52119751 4.78417969 32.65014648 C4.73003831 30.03676347 4.64648255 27.42508758 4.5625 24.8125 C4.54832031 23.91724609 4.53414062 23.02199219 4.51953125 22.09960938 C4.29792651 16.04979999 3.31102674 12.34833102 -0.1875 7.375 C-3.52792786 4.72569515 -7.05446196 5.0124528 -11.1875 5.375 C-14.90519441 7.06486109 -17.02795995 8.93580269 -19.1875 12.375 C-19.68607326 14.87859737 -19.68607326 14.87859737 -19.69921875 17.578125 C-19.73466797 18.5578125 -19.77011719 19.5375 -19.80664062 20.546875 C-19.82919922 21.56265625 -19.85175781 22.5784375 -19.875 23.625 C-19.90916016 24.65625 -19.94332031 25.6875 -19.97851562 26.75 C-20.06088093 29.29155812 -20.13006834 31.83277626 -20.1875 34.375 C-22.1675 34.375 -24.1475 34.375 -26.1875 34.375 C-26.3340954 30.70876188 -26.42199874 27.043288 -26.5 23.375 C-26.54189453 22.34503906 -26.58378906 21.31507812 -26.62695312 20.25390625 C-26.73685498 13.35206978 -25.8460395 8.63173366 -21.1875 3.375 C-14.61671209 -1.75021457 -7.74724201 -3.53614645 0 0 Z " fill="#000000" transform="translate(83.1875,8.625)"/>
<path d="M0 0 C5.15766464 2.76985693 8.94723796 6.44586813 11.375 11.8125 C11.5625 15.625 11.5625 15.625 11.375 18.8125 C9.395 18.8125 7.415 18.8125 5.375 18.8125 C5.22804687 18.20921875 5.08109375 17.6059375 4.9296875 16.984375 C3.74271302 12.75492571 2.90067203 10.30233075 -0.375 7.25 C-4.2167361 5.55077057 -6.4655547 5.21829353 -10.625 5.8125 C-14.62755838 7.92705915 -16.98745253 9.58731854 -18.625 13.8125 C-18.94864968 18.45147872 -18.20505227 21.9424216 -15.625 25.8125 C-11.69477138 28.43265241 -8.34334515 29.29771989 -3.625 28.8125 C-1.6069245 27.50668644 0.39553408 26.17613208 2.375 24.8125 C5.75 25.5625 5.75 25.5625 8.375 26.8125 C5.96487072 31.50590965 3.44682525 33.68616408 -1.5 35.5 C-9.08478224 36.61540915 -14.30164663 35.03174101 -20.625 30.8125 C-25.22418435 25.31591383 -26.10372906 20.87375359 -25.625 13.8125 C-23.44388551 7.15436103 -20.42823437 3.31794068 -14.25 0 C-8.9325662 -1.74191797 -5.3174338 -1.74191797 0 0 Z " fill="#000000" transform="translate(132.625,8.1875)"/>
<path d="M0 0 C1.32 0 2.64 0 4 0 C4.103125 0.639375 4.20625 1.27875 4.3125 1.9375 C4.6528125 2.9584375 4.6528125 2.9584375 5 4 C5.99 4.33 6.98 4.66 8 5 C8 5.99 8 6.98 8 8 C6.68 8 5.36 8 4 8 C4 9.65 4 11.3 4 13 C2.68 13 1.36 13 0 13 C0 11.35 0 9.7 0 8 C-1.65 8 -3.3 8 -5 8 C-5 7.01 -5 6.02 -5 5 C-3.35 5 -1.7 5 0 5 C0 3.35 0 1.7 0 0 Z " fill="#000000" transform="translate(23,19)"/>
<path d="M0 0 C4.29 0 8.58 0 13 0 C13 0.99 13 1.98 13 3 C8.71 3 4.42 3 0 3 C0 2.01 0 1.02 0 0 Z " fill="#000000" transform="translate(119,24)"/>
</svg>
